# xmcd
#
# Track frame offsets:
#	182
#	17072
#	29860
#	42080
#	54317
#	69062
#	85290
#	98107
#	109925
#	122892
#	136057
#	146952
#	164830
#	176310
#	186555
#	199162
#	210292
#	220297
#	237497
#	251560
#
# Disc length: 3531 seconds
#
# Revision: 2
# Processed by: cddbd v1.5.2PL0 Copyright (c) Steve Scherf et al.
# Submitted via: EasyCDDAExtractor 10.0.3.1
#
DISCID=2b0dc914
DTITLE=C.W. McCall - Truckin'
DYEAR=1900
DGENRE=Country
TTITLE0=Convoy
TTITLE1=Silverton
TTITLE2=Classified
TTITLE3=Mean Bear
TTITLE4=Roses For Mama
TTITLE5=Won't Be No Country Music
TTITLE6=Crispy Critters
TTITLE7=Truckin' Man Type Motel
TTITLE8=Old Home Fill Her Up
TTITLE9=Rubber Duck
TTITLE10=I's Something
TTITLE11=It's A Game That We Play
TTITLE12=Me and My Guitar
TTITLE13=I'm Coming Home To You
TTITLE14=Truck On
TTITLE15=Small Talk
TTITLE16=Forever Country
TTITLE17=Jambalaya
TTITLE18=I'm  Leaving It All Up To you
TTITLE19=Just Enough To Keep Me Hangin On
EXTD=
EXTT0=
EXTT1=
EXTT2=
EXTT3=
EXTT4=
EXTT5=
EXTT6=
EXTT7=
EXTT8=
EXTT9=
EXTT10=
EXTT11=
EXTT12=
EXTT13=
EXTT14=
EXTT15=
EXTT16=
EXTT17=
EXTT18=
EXTT19=
PLAYORDER=
